<svg width="13" height="13" viewBox="0 0 13 13" fill="none" xmlns="http://www.w3.org/2000/svg">
<path d="M3.93612 0.438477C2.09812 0.438477 0.602783 1.93381 0.602783 3.77181V9.10514C0.602783 10.9431 2.09812 12.4385 3.93612 12.4385H9.26945C11.1075 12.4385 12.6028 10.9431 12.6028 9.10514V3.77181C12.6028 1.93381 11.1075 0.438477 9.26945 0.438477H3.93612ZM3.93612 1.77181H9.26945C10.3721 1.77181 11.2695 2.66914 11.2695 3.77181V9.10514C11.2695 10.2078 10.3721 11.1051 9.26945 11.1051H3.93612C2.83345 11.1051 1.93612 10.2078 1.93612 9.10514V3.77181C1.93612 2.66914 2.83345 1.77181 3.93612 1.77181ZM9.93612 2.43848C9.75931 2.43848 9.58974 2.50871 9.46471 2.63374C9.33969 2.75876 9.26945 2.92833 9.26945 3.10514C9.26945 3.28195 9.33969 3.45152 9.46471 3.57655C9.58974 3.70157 9.75931 3.77181 9.93612 3.77181C10.1129 3.77181 10.2825 3.70157 10.4075 3.57655C10.5325 3.45152 10.6028 3.28195 10.6028 3.10514C10.6028 2.92833 10.5325 2.75876 10.4075 2.63374C10.2825 2.50871 10.1129 2.43848 9.93612 2.43848ZM6.60278 3.10514C4.76478 3.10514 3.26945 4.60048 3.26945 6.43848C3.26945 8.27648 4.76478 9.77181 6.60278 9.77181C8.44078 9.77181 9.93612 8.27648 9.93612 6.43848C9.93612 4.60048 8.44078 3.10514 6.60278 3.10514ZM6.60278 4.43848C7.70545 4.43848 8.60278 5.33581 8.60278 6.43848C8.60278 7.54114 7.70545 8.43848 6.60278 8.43848C5.50012 8.43848 4.60278 7.54114 4.60278 6.43848C4.60278 5.33581 5.50012 4.43848 6.60278 4.43848Z" fill="white"/>
</svg>
