<svg width="15" height="14" viewBox="0 0 15 14" fill="none" xmlns="http://www.w3.org/2000/svg">
<path d="M14.0288 0.721856C13.7949 0.5206 13.4275 0.491804 13.0477 0.646543H13.0471C12.6476 0.809193 1.73834 5.55705 1.29424 5.75103C1.21347 5.7795 0.508016 6.04658 0.580682 6.64149C0.645551 7.17785 1.21253 7.39999 1.28177 7.42562L4.05523 8.38918C4.23923 9.01067 4.91755 11.3036 5.06756 11.7934C5.16112 12.0988 5.31362 12.5 5.58089 12.5826C5.81542 12.6744 6.0487 12.5905 6.19964 12.4703L7.89528 10.8745L10.6326 13.0405L10.6977 13.0801C10.8836 13.1636 11.0617 13.2054 11.2317 13.2054C11.363 13.2054 11.489 13.1804 11.6093 13.1304C12.0195 12.9595 12.1835 12.563 12.2006 12.5181L14.2453 1.73478C14.37 1.15886 14.1966 0.865836 14.0288 0.721856ZM6.50122 8.7746L5.56561 11.3061L4.63 8.14172L11.803 2.76226L6.50122 8.7746Z" fill="white"/>
</svg>
