<svg width="16" height="10" viewBox="0 0 16 10" fill="none" xmlns="http://www.w3.org/2000/svg">
<path d="M15.1807 8.22165C14.5776 7.21126 13.024 5.99717 12.3827 5.46886C12.2072 5.3242 12.1884 5.07395 12.3481 4.91398C13.5721 3.68958 14.5511 2.28272 14.888 1.4326C15.0367 1.05707 14.729 0.660282 14.2953 0.660282H13.0358C12.6206 0.660282 12.3777 0.799 12.2619 1.01989C11.2446 2.96037 10.372 3.80018 9.76122 4.291C9.41923 4.56594 8.88595 4.33818 8.88595 3.91984C8.88595 3.11378 8.88595 2.07183 8.88595 1.33294C8.88595 0.974585 8.57114 0.684652 8.18284 0.684652L5.88188 0.660282C5.59225 0.660282 5.42679 0.965524 5.60064 1.17954L5.98055 1.68723C6.12352 1.86313 6.20071 2.07714 6.20071 2.29678L6.1987 4.58312C6.1987 4.98084 5.68085 5.17517 5.37343 4.89649C4.33337 3.95358 3.4309 2.02809 3.10603 1.10737C3.01206 0.840866 2.74391 0.660907 2.43984 0.660282L1.19908 0.657471C0.733589 0.657471 0.393278 1.06831 0.519804 1.48197C1.6535 5.18642 3.97963 8.7106 8.12511 9.0927C8.53355 9.13019 8.88595 8.82401 8.88595 8.44504V7.24344C8.88595 6.89884 9.17625 6.60265 9.54945 6.59391C9.56254 6.59359 9.57563 6.59359 9.58872 6.59359C10.6852 6.59359 11.9132 8.07919 12.3428 8.77403C12.4663 8.97398 12.6972 9.09583 12.9469 9.09583H14.6159C15.1028 9.09583 15.4153 8.615 15.1807 8.22165Z" fill="white"/>
</svg>
